<mxfile host="app.diagrams.net" agent="Mozilla/5.0 (X11; Linux x86_64) AppleWebKit/537.36 (KHTML, like Gecko) Chrome/130.0.0.0 Safari/537.36" version="24.8.3">
  <diagram name="Page-1" id="lA13NvQrBQEAqKUUlj1M">
    <mxGraphModel grid="1" page="1" gridSize="10" guides="1" tooltips="1" connect="1" arrows="1" fold="1" pageScale="1" pageWidth="1169" pageHeight="827" math="0" shadow="0">
      <root>
        <mxCell id="0" />
        <mxCell id="1" parent="0" />
        <mxCell id="q2PXyn-INNdzAp8buP7F-1" style="edgeStyle=orthogonalEdgeStyle;rounded=0;orthogonalLoop=1;jettySize=auto;html=1;entryX=0.5;entryY=0;entryDx=0;entryDy=0;" edge="1" parent="1" source="q2PXyn-INNdzAp8buP7F-2" target="q2PXyn-INNdzAp8buP7F-3">
          <mxGeometry relative="1" as="geometry" />
        </mxCell>
        <mxCell id="q2PXyn-INNdzAp8buP7F-2" value="IDLE" style="strokeWidth=2;html=1;shape=mxgraph.flowchart.terminator;whiteSpace=wrap;" vertex="1" parent="1">
          <mxGeometry x="513.5" y="144" width="100" height="60" as="geometry" />
        </mxCell>
        <mxCell id="q2PXyn-INNdzAp8buP7F-3" value="Open QMB1" style="shape=process;whiteSpace=wrap;html=1;backgroundOutline=1;" vertex="1" parent="1">
          <mxGeometry x="503.5" y="254" width="120" height="60" as="geometry" />
        </mxCell>
        <mxCell id="q2PXyn-INNdzAp8buP7F-4" style="edgeStyle=orthogonalEdgeStyle;rounded=0;orthogonalLoop=1;jettySize=auto;html=1;exitX=1;exitY=0.5;exitDx=0;exitDy=0;exitPerimeter=0;" edge="1" parent="1" source="q2PXyn-INNdzAp8buP7F-6">
          <mxGeometry relative="1" as="geometry">
            <mxPoint x="563.5" y="334" as="targetPoint" />
            <Array as="points">
              <mxPoint x="678.5" y="414" />
              <mxPoint x="678.5" y="334" />
            </Array>
          </mxGeometry>
        </mxCell>
        <mxCell id="q2PXyn-INNdzAp8buP7F-5" value="no" style="edgeLabel;html=1;align=center;verticalAlign=middle;resizable=0;points=[];" connectable="0" vertex="1" parent="q2PXyn-INNdzAp8buP7F-4">
          <mxGeometry x="-0.8146" relative="1" as="geometry">
            <mxPoint as="offset" />
          </mxGeometry>
        </mxCell>
        <mxCell id="q2PXyn-INNdzAp8buP7F-6" value="BPA1 &amp;gt; pressure?" style="strokeWidth=2;html=1;shape=mxgraph.flowchart.decision;whiteSpace=wrap;" vertex="1" parent="1">
          <mxGeometry x="491" y="364" width="145" height="100" as="geometry" />
        </mxCell>
        <mxCell id="q2PXyn-INNdzAp8buP7F-7" value="" style="edgeStyle=orthogonalEdgeStyle;rounded=0;orthogonalLoop=1;jettySize=auto;html=1;" edge="1" parent="1" source="q2PXyn-INNdzAp8buP7F-8" target="q2PXyn-INNdzAp8buP7F-10">
          <mxGeometry relative="1" as="geometry" />
        </mxCell>
        <mxCell id="q2PXyn-INNdzAp8buP7F-8" value="Close QMB1" style="shape=process;whiteSpace=wrap;html=1;backgroundOutline=1;" vertex="1" parent="1">
          <mxGeometry x="503.5" y="514" width="120" height="60" as="geometry" />
        </mxCell>
        <mxCell id="q2PXyn-INNdzAp8buP7F-9" style="edgeStyle=orthogonalEdgeStyle;rounded=0;orthogonalLoop=1;jettySize=auto;html=1;entryX=0.5;entryY=0;entryDx=0;entryDy=0;entryPerimeter=0;" edge="1" parent="1" source="q2PXyn-INNdzAp8buP7F-3" target="q2PXyn-INNdzAp8buP7F-6">
          <mxGeometry relative="1" as="geometry" />
        </mxCell>
        <mxCell id="q2PXyn-INNdzAp8buP7F-10" value="COMPLETE" style="strokeWidth=2;html=1;shape=mxgraph.flowchart.terminator;whiteSpace=wrap;" vertex="1" parent="1">
          <mxGeometry x="513.5" y="624" width="100" height="60" as="geometry" />
        </mxCell>
        <mxCell id="q2PXyn-INNdzAp8buP7F-11" style="edgeStyle=orthogonalEdgeStyle;rounded=0;orthogonalLoop=1;jettySize=auto;html=1;entryX=0.5;entryY=0;entryDx=0;entryDy=0;exitX=0.5;exitY=1;exitDx=0;exitDy=0;exitPerimeter=0;" edge="1" parent="1" source="q2PXyn-INNdzAp8buP7F-6" target="q2PXyn-INNdzAp8buP7F-8">
          <mxGeometry relative="1" as="geometry">
            <mxPoint x="568.5" y="490" as="sourcePoint" />
            <mxPoint x="568.5" y="504" as="targetPoint" />
          </mxGeometry>
        </mxCell>
        <mxCell id="q2PXyn-INNdzAp8buP7F-12" value="yes" style="edgeLabel;html=1;align=center;verticalAlign=middle;resizable=0;points=[];" connectable="0" vertex="1" parent="q2PXyn-INNdzAp8buP7F-11">
          <mxGeometry x="-0.08" y="-2" relative="1" as="geometry">
            <mxPoint as="offset" />
          </mxGeometry>
        </mxCell>
      </root>
    </mxGraphModel>
  </diagram>
</mxfile>
